#!OML:ASF F:\Work\Patient Classification 1\justin\Session 1\justin.ASF
:FULLY-SPECIFIED
:DEGREES
1458
root 0.472833 17.5461 -0.321031 -6.59367 46.3477 -3.80679
lowerback 15.5035 -2.54174 -2.62121
upperback 0.450432 -3.67325 1.62008
thorax -7.94045 -1.63566 4.02338
lowerneck -2.05872 -12.3429 -21.8668
upperneck 14.3155 -18.0328 17.6099
head 8.42125 -8.86951 7.56705
rclavicle 3.52408e-014 -4.17448e-015
rhumerus -1.2347 -6.06188 -66.1011
rradius 141.81
rwrist -16.0616
rhand -13.6879 32.0544
rfingers 7.12502
rthumb 12.43 2.44401
lclavicle 3.52408e-014 -4.17448e-015
lhumerus 1.14418 -29.816 91.6059
lradius 131.933
lwrist 12.9976
lhand -9.37459 9.73855
lfingers 7.12502
lthumb 16.5858 39.0498
rfemur -15.8659 -3.90993 11.6374
rtibia 35.2839
rfoot -9.1 -6.40693
rtoes -21.3565
lfemur -10.0881 5.79973 -5.0298
ltibia 52.2659
lfoot -17.6327 -11.893
ltoes -22.6587
1459
root 0.455214 17.5338 -0.326185 -7.39056 45.8451 -4.72721
lowerback 15.5501 -2.30192 -2.11497
upperback 0.482211 -3.24233 1.87668
thorax -7.98069 -1.43953 3.92297
lowerneck -1.52254 -12.3624 -21.5125
upperneck 13.9711 -18.0439 17.0926
head 8.12354 -8.91362 7.35634
rclavicle 1.26955e-013 -2.18663e-015
rhumerus -1.10126 -5.93247 -66.0806
rradius 141.629
rwrist -15.8468
rhand -13.6239 31.9542
rfingers 7.12502
rthumb 12.4917 2.34756
lclavicle 1.26955e-013 -2.18663e-015
lhumerus 1.25509 -30.0412 91.7101
lradius 131.741
lwrist 12.7255
lhand -9.41031 9.63335
lfingers 7.12502
lthumb 16.5514 38.9475
rfemur -16.0154 -3.23273 12.5284
rtibia 35.5547
rfoot -9.12049 -6.76944
rtoes -22.2582
lfemur -9.64839 5.75463 -3.95326
ltibia 52.4851
lfoot -17.2614 -10.9198
ltoes -22.5571
1460
root 0.449902 17.5185 -0.339798 -7.30793 45.6744 -4.40263
lowerback 15.6071 -2.08291 -2.2552
upperback 0.470084 -2.98277 1.82158
thorax -8.042 -1.30792 3.89148
lowerneck -1.17953 -12.3751 -21.2256
upperneck 13.8786 -18.0512 16.6625
head 7.96039 -8.94269 7.18211
rclavicle -1.16584e-013 1.29707e-014
rhumerus -1.55726 -5.62774 -66.2536
rradius 141.698
rwrist -14.9588
rhand -14.1752 31.4599
rfingers 7.12502
rthumb 11.9601 1.82161
lclavicle -1.16584e-013 1.29707e-014
lhumerus 1.26107 -30.3269 91.8572
lradius 131.718
lwrist 12.585
lhand -9.22517 9.85548
lfingers 7.12502
lthumb 16.7297 39.1546
rfemur -16.0617 -3.15968 12.2892
rtibia 35.7851
rfoot -9.06363 -6.68886
rtoes -23.5912
lfemur -9.16052 5.09555 -4.12553
ltibia 52.6935
lfoot -16.8312 -9.75056
ltoes -22.7538
1461
root 0.452144 17.5074 -0.366536 -6.78121 45.586 -3.65125
lowerback 15.5302 -2.03079 -2.56608
upperback 0.491835 -2.98157 1.66752
thorax -7.96804 -1.30135 3.89659
lowerneck -1.26216 -12.2628 -21.0191
upperneck 13.9325 -17.8388 16.3554
head 7.89724 -8.84306 7.07532
rclavicle -2.24844e-014 -7.7526e-015
rhumerus -1.49839 -4.9646 -66.5924
rradius 141.595
rwrist -13.6721
rhand -15.2728 30.9118
rfingers 7.12502
rthumb 10.9016 1.21483
lclavicle -2.24844e-014 -7.7526e-015
lhumerus 1.33041 -30.2325 91.7766
lradius 131.791
lwrist 12.4024
lhand -8.75961 9.79287
lfingers 7.12502
lthumb 17.1778 39.0536
rfemur -16.2866 -3.45174 11.6116
rtibia 36.0208
rfoot -8.97135 -6.26324
rtoes -23.8111
lfemur -8.79652 4.56394 -4.71119
ltibia 52.8126
lfoot -16.2233 -9.10963
ltoes -22.5894
1462
root 0.440867 17.4947 -0.36503 -7.89786 45.0792 -4.86587
lowerback 15.6289 -2.04737 -1.89247
upperback 0.569608 -2.85909 1.93842
thorax -7.96781 -1.26174 3.78201
lowerneck -1.22814 -12.0596 -21.0484
upperneck 14.0802 -17.5769 16.375
head 7.8907 -8.72086 7.13437
rclavicle 5.55758e-014 -3.52843e-015
rhumerus -0.813367 -4.60813 -66.6596
rradius 141.064
rwrist -13.2181
rhand -15.6384 30.7972
rfingers 7.12502
rthumb 10.549 1.08196
lclavicle 5.55758e-014 -3.52843e-015
lhumerus 1.13004 -30.0823 91.65
lradius 131.795
lwrist 12.3396
lhand -8.37455 9.57327
lfingers 7.12502
lthumb 17.5484 38.8013
rfemur -16.2582 -2.66572 12.707
rtibia 36.2174
rfoot -9.07784 -6.7025
rtoes -23.3613
lfemur -8.08416 4.618 -3.3278
ltibia 52.8315
lfoot -15.3201 -9.44845
ltoes -22.0354
1463
root 0.463271 17.4897 -0.427619 -5.97398 45.4635 -2.5431
lowerback 15.5355 -2.13297 -2.88506
upperback 0.269374 -3.20797 1.34134
thorax -8.1956 -1.39724 3.78406
lowerneck -0.712002 -11.84 -21.2372
upperneck 14.1543 -17.4088 16.6414
head 7.83277 -8.66314 7.31852
rclavicle 6.47044e-014 -5.31749e-015
rhumerus -1.02215 -3.69074 -67.4277
rradius 140.961
rwrist -12.3763
rhand -14.8439 31.8886
rfingers 7.12502
rthumb 11.3153 2.21379
lclavicle 6.47044e-014 -5.31749e-015
lhumerus 0.629478 -30.1909 91.682
lradius 131.842
lwrist 12.4144
lhand -8.59164 9.50841
lfingers 7.12502
lthumb 17.3395 38.7549
rfemur -16.715 -4.03247 10.513
rtibia 36.4031
rfoot -8.91347 -5.51301
rtoes -23.4663
lfemur -8.03797 3.8207 -5.56076
ltibia 52.6682
lfoot -14.2648 -8.80229
ltoes -20.9769
1464
root 0.476263 17.4837 -0.459622 -5.25482 45.6173 -1.50633
lowerback 15.3669 -2.10449 -3.44602
upperback 0.364367 -3.27394 1.22005
thorax -7.96879 -1.41821 3.97165
lowerneck -0.767831 -11.8425 -21.4186
upperneck 14.1172 -17.4005 16.7219
head 7.85451 -8.66115 7.37124
rclavicle 5.81461e-014 -3.40419e-015
rhumerus -0.613107 -3.76397 -67.3196
rradius 140.634
rwrist -12.2889
rhand -14.6059 32.7696
rfingers 7.12502
rthumb 11.5449 3.10759
lclavicle 5.81461e-014 -3.40419e-015
lhumerus 0.843748 -30.4033 91.7761
lradius 131.957
lwrist 12.4795
lhand -8.76177 9.54836
lfingers 7.12502
lthumb 17.1758 38.8092
rfemur -16.7848 -4.69701 9.51435
rtibia 36.5357
rfoot -8.84101 -4.84888
rtoes -23.5294
lfemur -7.53887 3.18976 -6.51062
ltibia 52.3785
lfoot -13.0995 -8.67387
ltoes -19.2053
1465
root 0.482942 17.4763 -0.467331 -5.32429 45.5668 -1.31599
lowerback 15.0131 -1.89205 -3.67338
upperback 1.11616 -2.97323 1.54739
thorax -6.95675 -1.29963 4.34129
lowerneck -2.77915 -12.4148 -21.9361
upperneck 14.4528 -17.8031 16.6256
head 8.45225 -8.77784 7.21896
rclavicle 1.23433e-014 -1.28216e-014
rhumerus 0.836669 -4.48987 -66.5935
rradius 140.256
rwrist -12.1618
rhand -14.8316 32.6232
rfingers 7.12502
rthumb 11.3272 2.94911
lclavicle 1.23433e-014 -1.28216e-014
lhumerus 2.53784 -30.7506 91.7933
lradius 131.907
lwrist 12.5027
lhand -8.49769 9.5851
lfingers 7.12502
lthumb 17.4299 38.8237
rfemur -16.6777 -4.59262 9.30814
rtibia 36.6673
rfoot -8.92813 -4.75396
rtoes -24.1714
lfemur -6.68983 2.59368 -6.63313
ltibia 51.9887
lfoot -12.2159 -8.86937
ltoes -18.5233
1466
root 0.477691 17.4673 -0.463828 -6.17041 45.0687 -2.22693
lowerback 15.2275 -2.08497 -3.38205
upperback 0.658044 -3.19313 1.60627
thorax -7.56078 -1.39058 4.31369
lowerneck -1.74427 -11.7811 -21.3838
upperneck 14.644 -17.1081 16.2736
head 8.09411 -8.49425 7.20054
rclavicle 4.16718e-014 -4.12478e-015
rhumerus -0.203442 -3.37691 -67.571
rradius 140.294
rwrist -11.8624
rhand -15.0656 32.4669
rfingers 7.12502
rthumb 11.1015 2.78057
lclavicle 4.16718e-014 -4.12478e-015
lhumerus 1.10603 -30.378 91.8227
lradius 132.288
lwrist 12.597
lhand -8.03813 10.0087
lfingers 7.12502
lthumb 17.8722 39.2074
rfemur -16.6762 -3.53187 10.1692
rtibia 36.7504
rfoot -8.70874 -5.391
rtoes -11.7531
lfemur -5.78362 2.37501 -5.73127
ltibia 51.5515
lfoot -11.3143 -8.76642
ltoes -19.2249
